<svg xmlns="http://www.w3.org/2000/svg" viewBox="0 0 600 600" width="600" height="600" role="img">
 <defs>
  <linearGradient id="bg4" x1="0" y1="0" x2=".85" y2="1">
   <stop offset="0" stop-color="#1F110C"/><stop offset="1" stop-color="#552512"/>
  </linearGradient>
  <radialGradient id="gg4" cx="50%" cy="44%" r="58%">
   <stop offset="0" stop-color="#FFC170" stop-opacity=".26"/>
   <stop offset="1" stop-color="#FFC170" stop-opacity="0"/>
  </radialGradient>
  <pattern id="pg4" width="14" height="14" patternTransform="rotate(35)" patternUnits="userSpaceOnUse">
   <line x1="0" y1="0" x2="0" y2="14" stroke="#FFC170" stroke-opacity=".06" stroke-width="3"/>
  </pattern>
 </defs>
 <rect width="600" height="600" fill="url(#bg4)"/>
 <rect width="600" height="600" fill="url(#pg4)"/>
 <rect width="600" height="600" fill="url(#gg4)"/>
 <circle cx="300" cy="288" r="192" fill="#FFC170" fill-opacity=".07" stroke="#FFC170" stroke-opacity=".16" stroke-width="2"/>
 <g transform="translate(150.0 138.0) scale(3.0000)" fill="none" stroke="#FFC170"
    stroke-width="5" stroke-linecap="round" stroke-linejoin="round" color="#FFC170">
  
 <path d="M12 44h24l-4 42a3 3 0 0 1-3 3h-10a3 3 0 0 1-3-3Z"/>
 <path d="M40 36h24l-4 50a3 3 0 0 1-3 3H47a3 3 0 0 1-3-3Z"/>
 <path d="M68 46h24l-4 40a3 3 0 0 1-3 3h-10a3 3 0 0 1-3-3Z"/>
 <path d="M9 44h30M37 36h30M65 46h30"/>

 </g>
 <ellipse cx="300" cy="528" rx="132" ry="14" fill="#000" fill-opacity=".26"/>
</svg>
