<svg xmlns="http://www.w3.org/2000/svg" viewBox="0 0 1200 630" width="1200" height="630" role="img" aria-label="Pollos El Brasero">
  <defs>
    <linearGradient id="obg" x1="0" y1="0" x2=".7" y2="1">
      <stop offset="0" stop-color="#150F0C"/>
      <stop offset="1" stop-color="#0B0908"/>
    </linearGradient>
    <radialGradient id="oglow" cx="76%" cy="42%" r="52%">
      <stop offset="0" stop-color="#FF6A1F" stop-opacity=".55"/>
      <stop offset="1" stop-color="#FF6A1F" stop-opacity="0"/>
    </radialGradient>
    <linearGradient id="otxt" x1="0" y1="0" x2="1" y2="0">
      <stop offset="0" stop-color="#FFC53D"/>
      <stop offset=".6" stop-color="#FF9A3C"/>
      <stop offset="1" stop-color="#FF6A1F"/>
    </linearGradient>
  </defs>
  <rect width="1200" height="630" fill="url(#obg)"/>
  <rect width="1200" height="630" fill="url(#oglow)"/>
  <g transform="translate(80 236)">
    <text font-family="Anton, Impact, 'Arial Narrow', sans-serif" font-size="96" fill="#FFF4E7" letter-spacing="2">POLLOS</text>
    <text y="100" font-family="Anton, Impact, 'Arial Narrow', sans-serif" font-size="96" fill="url(#otxt)" letter-spacing="2">EL BRASERO</text>
    <text y="164" font-family="Inter, Helvetica, Arial, sans-serif" font-size="30" fill="#BFAB9B">Marinado 24 h · asado a la leña · entrega en 30 min</text>
  </g>
  <g transform="translate(742 74) scale(0.93)">
    <circle cx="260" cy="264" r="238" fill="#FF6A1F" opacity=".08"/>
    <path d="M132 294c-10-90 54-158 128-158s138 68 128 158c-8 60-60 92-128 92s-120-32-128-92z" fill="#E07C22"/>
    <path d="M170 344c-26 20-54 40-62 60-7 17 4 31 21 27 25-7 60-42 72-69z" fill="#C25F17"/>
    <path d="M350 344c26 20 54 40 62 60 7 17-4 31-21 27-25-7-60-42-72-69z" fill="#C25F17"/>
    <circle cx="112" cy="424" r="15" fill="#FFF6E4"/>
    <circle cx="408" cy="424" r="15" fill="#FFF6E4"/>
    <ellipse cx="216" cy="212" rx="76" ry="44" fill="#FFF0D2" opacity=".22" transform="rotate(-20 216 212)"/>
  </g>
</svg>
