<svg xmlns="http://www.w3.org/2000/svg" viewBox="0 0 400 300" width="400" height="300" role="img">
 <defs>
  <linearGradient id="bx0" x1="0" y1="0" x2=".85" y2="1">
   <stop offset="0" stop-color="#301810"/><stop offset="1" stop-color="#7A3714"/>
  </linearGradient>
  <radialGradient id="gx0" cx="50%" cy="44%" r="58%">
   <stop offset="0" stop-color="#FFE0AC" stop-opacity=".26"/>
   <stop offset="1" stop-color="#FFE0AC" stop-opacity="0"/>
  </radialGradient>
  <pattern id="px0" width="14" height="14" patternTransform="rotate(35)" patternUnits="userSpaceOnUse">
   <line x1="0" y1="0" x2="0" y2="14" stroke="#FFE0AC" stroke-opacity=".06" stroke-width="3"/>
  </pattern>
 </defs>
 <rect width="400" height="300" fill="url(#bx0)"/>
 <rect width="400" height="300" fill="url(#px0)"/>
 <rect width="400" height="300" fill="url(#gx0)"/>
 <circle cx="200" cy="144" r="111" fill="#FFE0AC" fill-opacity=".07" stroke="#FFE0AC" stroke-opacity=".16" stroke-width="2"/>
 <g transform="translate(113.0 57.0) scale(1.7400)" fill="none" stroke="#FFE0AC"
    stroke-width="5" stroke-linecap="round" stroke-linejoin="round" color="#FFE0AC">
  
 <path d="M18 32h54c9 0 15 7 15 15v12c0 9-6 15-15 15H18c-9 0-15-6-15-15V47c0-8 6-15 15-15Z"/>
 <path d="M32 32v42M46 32v42M60 32v42M74 32v42"/>
 <circle cx="32" cy="24" r="5" fill="currentColor" stroke="none"/>
 <circle cx="46" cy="24" r="5" fill="currentColor" stroke="none"/>
 <circle cx="60" cy="24" r="5" fill="currentColor" stroke="none"/>
 <circle cx="74" cy="24" r="5" fill="currentColor" stroke="none"/>

 </g>
 <ellipse cx="200" cy="264" rx="77" ry="8" fill="#000" fill-opacity=".26"/>
</svg>
