<svg xmlns="http://www.w3.org/2000/svg" viewBox="0 0 400 300" width="400" height="300" role="img">
 <defs>
  <linearGradient id="bd14" x1="0" y1="0" x2=".85" y2="1">
   <stop offset="0" stop-color="#2B160D"/><stop offset="1" stop-color="#5E2A11"/>
  </linearGradient>
  <radialGradient id="gd14" cx="50%" cy="44%" r="58%">
   <stop offset="0" stop-color="#FFCE8A" stop-opacity=".26"/>
   <stop offset="1" stop-color="#FFCE8A" stop-opacity="0"/>
  </radialGradient>
  <pattern id="pd14" width="14" height="14" patternTransform="rotate(35)" patternUnits="userSpaceOnUse">
   <line x1="0" y1="0" x2="0" y2="14" stroke="#FFCE8A" stroke-opacity=".06" stroke-width="3"/>
  </pattern>
 </defs>
 <rect width="400" height="300" fill="url(#bd14)"/>
 <rect width="400" height="300" fill="url(#pd14)"/>
 <rect width="400" height="300" fill="url(#gd14)"/>
 <circle cx="200" cy="144" r="111" fill="#FFCE8A" fill-opacity=".07" stroke="#FFCE8A" stroke-opacity=".16" stroke-width="2"/>
 <g transform="translate(113.0 57.0) scale(1.7400)" fill="none" stroke="#FFCE8A"
    stroke-width="5" stroke-linecap="round" stroke-linejoin="round" color="#FFCE8A">
  
 <path d="M42 8h16v10l10 14c3 4 4 8 4 13v39c0 5-4 9-9 9H37c-5 0-9-4-9-9V45c0-5 1-9 4-13l10-14Z"/>
 <path d="M28 52h44M28 72h44"/>
 <path d="M40 6h20"/>

 </g>
 <ellipse cx="200" cy="264" rx="77" ry="8" fill="#000" fill-opacity=".26"/>
</svg>
